<svg width="24" height="25" viewBox="0 0 24 25" fill="none" xmlns="http://www.w3.org/2000/svg">
<rect y="0.5" width="24" height="24" rx="8" fill="none"/>
<path d="M11.7466 19C11.5677 19 11.4188 18.9398 11.3 18.8194C11.1812 18.699 11.1218 18.5498 11.1218 18.3718V12.8782H5.62818C5.45019 12.8782 5.301 12.8176 5.1806 12.6966C5.0602 12.5756 5 12.4255 5 12.2466C5 12.0677 5.0602 11.9188 5.1806 11.8C5.301 11.6812 5.45019 11.6218 5.62818 11.6218H11.1218V6.12817C11.1218 5.95019 11.1823 5.801 11.3034 5.6806C11.4244 5.5602 11.5744 5.5 11.7534 5.5C11.9323 5.5 12.0812 5.5602 12.2 5.6806C12.3188 5.801 12.3782 5.95019 12.3782 6.12817V11.6218H17.8718C18.0498 11.6218 18.199 11.6823 18.3194 11.8034C18.4398 11.9244 18.5 12.0744 18.5 12.2534C18.5 12.4323 18.4398 12.5812 18.3194 12.7C18.199 12.8188 18.0498 12.8782 17.8718 12.8782H12.3782V18.3718C12.3782 18.5498 12.3176 18.699 12.1966 18.8194C12.0756 18.9398 11.9255 19 11.7466 19Z" fill="white"/>
</svg>
