<svg width="16" height="17" viewBox="0 0 16 17" fill="none" xmlns="http://www.w3.org/2000/svg">
<path d="M6.66797 10.5L6.66797 8.5" stroke="#A3A3A3" stroke-linecap="round"/>
<path d="M9.33203 10.5L9.33203 8.5" stroke="#A3A3A3" stroke-linecap="round"/>
<path d="M2 5.16699H14V5.16699C12.8954 5.16699 12 6.06242 12 7.16699V9.83366C12 11.7193 12 12.6621 11.4142 13.2479C10.8284 13.8337 9.88562 13.8337 8 13.8337V13.8337C6.11438 13.8337 5.17157 13.8337 4.58579 13.2479C4 12.6621 4 11.7193 4 9.83366V7.16699C4 6.06242 3.10457 5.16699 2 5.16699V5.16699Z" stroke="#A3A3A3" stroke-linecap="round"/>
<path d="M6.7108 2.74706C6.78676 2.67618 6.95416 2.61355 7.18702 2.56888C7.41987 2.52421 7.70519 2.5 7.9987 2.5C8.29221 2.5 8.57752 2.52421 8.81038 2.56888C9.04324 2.61355 9.21063 2.67618 9.2866 2.74706" stroke="#A3A3A3" stroke-linecap="round"/>
</svg>
