<svg width="32" height="32" viewBox="0 0 32 32" fill="none" xmlns="http://www.w3.org/2000/svg">
<path d="M6.48123 25.5201L6.83405 25.1673L6.48123 25.5201C6.69064 25.7295 6.9517 25.733 7.10643 25.7179C7.24698 25.7041 7.41434 25.6622 7.57104 25.623C7.57996 25.6207 7.58885 25.6185 7.59769 25.6163L11.5851 24.6194C11.6003 24.6156 11.6153 24.6119 11.6302 24.6082C11.8529 24.5528 12.0501 24.5037 12.2291 24.4023C12.4081 24.301 12.5517 24.1571 12.7138 23.9947C12.7246 23.9838 12.7355 23.9729 12.7466 23.9618L22.9406 13.7678L22.9639 13.7445C23.2774 13.4311 23.5474 13.1611 23.7346 12.9157C23.9352 12.6528 24.0871 12.3604 24.0871 12C24.0871 11.6396 23.9352 11.3472 23.7346 11.0843C23.5474 10.8389 23.2774 10.5689 22.9639 10.2555L22.951 10.2426L22.9406 10.2322L21.7691 9.06066L21.7458 9.03739C21.4324 8.72395 21.1624 8.45388 20.917 8.2667C20.6541 8.0661 20.3617 7.91421 20.0013 7.91421C19.6409 7.91421 19.3485 8.0661 19.0856 8.2667C18.8402 8.45388 18.5702 8.72395 18.2568 9.03738L18.2335 9.06066L8.03946 19.2547C8.02844 19.2658 8.01749 19.2767 8.00663 19.2875C7.84416 19.4496 7.70033 19.5932 7.59897 19.7722C7.4976 19.9512 7.44853 20.1484 7.3931 20.3711C7.38939 20.386 7.38566 20.401 7.38187 20.4162L6.38501 24.4036C6.3828 24.4125 6.38057 24.4214 6.37833 24.4303C6.33909 24.587 6.29718 24.7543 6.28343 24.8949C6.26829 25.0496 6.27182 25.3107 6.48123 25.5201Z" stroke="white"/>
<path d="M16.668 9.99992L20.668 7.33325L24.668 11.3333L22.0013 15.3333L16.668 9.99992Z" fill="white"/>
</svg>
